<mxfile host="app.diagrams.net" modified="2023-08-17T00:28:34.736Z" agent="Mozilla/5.0 (Windows NT 10.0; Win64; x64; rv:109.0) Gecko/20100101 Firefox/116.0" version="21.6.8" etag="uJFZbY7WM6T8vOPtF1qm" type="github">
  <diagram name="Page-1" id="rmn6MzhxYxA7YhYtqKFv">
    <mxGraphModel>
      <root>
        <mxCell id="0" />
        <mxCell id="1" parent="0" />
      </root>
    </mxGraphModel>
  </diagram>
</mxfile>
